<?xml version="1.0" encoding="UTF-8" standalone="no"?>
<svg
   version="1.1"
   id="Layer_1"
   x="0px"
   y="0px"
   width="100%"
   viewBox="0 0 311 311"
   enable-background="new 0 0 311 311"
   xml:space="preserve"
   sodipodi:docname="namaste2.svg"
   inkscape:version="1.2.2 (b0a84865, 2022-12-01)"
   xmlns:inkscape="http://www.inkscape.org/namespaces/inkscape"
   xmlns:sodipodi="http://sodipodi.sourceforge.net/DTD/sodipodi-0.dtd"
   xmlns="http://www.w3.org/2000/svg"
   xmlns:svg="http://www.w3.org/2000/svg"><defs
   id="defs11" /><sodipodi:namedview
   id="namedview9"
   pagecolor="#505050"
   bordercolor="#eeeeee"
   borderopacity="1"
   inkscape:showpageshadow="0"
   inkscape:pageopacity="0"
   inkscape:pagecheckerboard="0"
   inkscape:deskcolor="#505050"
   showgrid="false"
   inkscape:zoom="2.5847793"
   inkscape:cx="121.28695"
   inkscape:cy="155.13897"
   inkscape:window-width="1920"
   inkscape:window-height="1080"
   inkscape:window-x="0"
   inkscape:window-y="0"
   inkscape:window-maximized="0"
   inkscape:current-layer="Layer_1"
   showguides="true"><sodipodi:guide
     position="283.58321,-18.235077"
     orientation="0,-1"
     id="guide5816"
     inkscape:locked="false" /></sodipodi:namedview>
<path
   fill="#000000"
   opacity="1.000000"
   stroke="none"
   d=" M201.000000,312.000000   C134.000031,312.000000 67.500061,312.000000 1.000071,312.000000   C1.000048,208.333420 1.000048,104.666832 1.000024,1.000183   C104.666534,1.000122 208.333069,1.000122 311.999695,1.000061   C311.999817,104.666481 311.999817,208.332962 311.999908,311.999725   C275.166656,312.000000 238.333328,312.000000 201.000000,312.000000  M159.380569,45.128204   C152.067200,45.580574 146.198761,47.763027 141.553452,54.409554   C126.439659,76.034431 110.610146,97.157951 95.148903,118.541542   C83.462601,134.704224 77.413734,152.992264 75.003281,172.652893   C73.641312,183.761658 71.791054,194.812302 70.524384,205.930542   C69.131889,218.153229 67.819801,230.404434 67.126633,242.680145   C66.711029,250.040375 70.931694,255.653702 77.774734,257.772614   C90.572006,261.735199 103.539322,265.148499 116.337456,269.108490   C128.744370,272.947449 139.069244,264.728729 142.039978,253.056992   C143.547058,247.135880 145.587509,241.346939 147.002625,235.406723   C150.383652,221.214371 156.766647,207.653473 156.108841,192.585739   C156.065048,191.582367 156.915527,190.539978 157.350067,189.515747   C158.635941,190.629364 158.942917,191.498993 159.097504,192.394928   C160.127121,198.362732 160.728088,204.436813 162.215103,210.286545   C165.220139,222.107864 168.622360,233.831039 172.023911,245.547348   C173.351273,250.119278 174.794037,254.710571 176.754791,259.034302   C180.396042,267.063751 189.770798,271.552673 198.247681,269.252899   C211.504578,265.656311 224.708862,261.849335 237.853088,257.860168   C245.825409,255.440613 250.537201,248.909622 249.985199,240.508835   C249.380005,231.298798 248.182434,222.112915 246.892395,212.965958   C244.706985,197.470245 242.217850,182.017593 239.908752,166.539047   C237.357590,149.437790 231.494431,133.484482 221.628174,119.377472   C207.659317,99.404457 193.085983,79.848030 178.495621,60.319298   C173.687866,53.884312 169.903992,45.820660 159.380569,45.128204  z"
   id="path2"
   style="fill:none;fill-opacity:1" />
<path
   fill="#2E3D53"
   opacity="1"
   stroke="none"
   d="m 158.1716,1.3678652 c 13.67391,0.9943329 18.79421,12.0394178 25.3,20.8536588 19.74352,26.749233 39.46399,53.5364 58.3665,80.894186 13.35091,19.3229 21.28487,41.17475 24.73707,64.59898 3.12466,21.20153 6.49293,42.36761 9.4502,63.59266 1.74566,12.52893 3.36621,25.11118 4.18515,37.72651 0.74696,11.50687 -5.62898,20.45262 -16.41705,23.76677 -17.78661,5.4641 -35.65451,10.67865 -53.59359,15.60505 -11.47082,3.15008 -24.15665,-2.99857 -29.08395,-13.99679 -2.65326,-5.92237 -4.6056,-12.21125 -6.40177,-18.47359 -4.60294,-16.04826 -9.20679,-32.10594 -13.27317,-48.29804 -2.01222,-8.01259 -2.82543,-16.3325 -4.21869,-24.50681 -0.2092,-1.2272 -0.62459,-2.41837 -2.36462,-3.94373 -0.58802,1.40294 -1.73887,2.83072 -1.67962,4.20509 0.89014,20.63883 -7.74725,39.21369 -12.32243,58.65348 -1.91491,8.13656 -4.67603,16.06588 -6.71539,24.17625 -4.01997,15.9872 -17.99148,27.2447 -34.780369,21.98634 C 82.041574,302.78372 64.494345,298.1084 47.177218,292.6807 37.917292,289.77834 32.205935,282.08956 32.768325,272.00799 c 0.937988,-16.8145 2.713491,-33.59544 4.5978,-50.33731 1.714044,-15.22906 4.217793,-30.36555 6.060793,-45.58163 3.261799,-26.9299 11.44706,-51.97971 27.260835,-74.11835 C 91.60973,72.680801 113.03005,43.747128 133.48187,14.126727 139.76786,5.0227303 147.70896,2.0333431 158.1716,1.3678652 M 188.28784,100.35552 C 177.7958,81.380889 167.30377,62.406257 156.68131,43.195751 c -1.89419,1.452002 -2.62558,1.742979 -2.92424,2.280374 -13.19163,23.736568 -26.42486,47.45013 -39.4653,71.271795 -5.51064,10.0666 -8.6486,21.02696 -8.47683,32.52167 0.13446,8.997 1.43675,17.9933 2.5213,26.95259 0.71816,5.93273 1.96852,11.79943 2.98062,17.69571 0.74808,-0.0307 1.49614,-0.0612 2.24422,-0.0919 4.84176,-8.05012 9.74878,-16.06091 14.51032,-24.15937 7.54456,-12.83182 16.67211,-14.12103 26.9483,-3.73403 0.24759,0.25025 0.82344,0.16768 1.24853,0.22651 9.88439,-10.28399 17.94741,-9.72444 25.614,1.7936 1.12449,1.68941 2.2116,3.40681 3.25384,5.14936 4.39938,7.35555 8.77523,14.72549 13.688,22.97757 0.85696,-1.98698 1.39424,-2.73584 1.49536,-3.54082 1.91251,-15.22499 4.32936,-30.41302 5.49935,-45.69828 1.35062,-17.64578 -7.70438,-31.79205 -17.53094,-46.48501 z"
   id="path4"
   style="fill:#000003;fill-opacity:1;stroke-width:1.36144" />
<path
   fill="#000000"
   opacity="1.000000"
   stroke="none"
   d=" M182.239410,117.681816   C189.316574,128.089203 196.008179,138.416916 195.010071,151.299515   C194.145462,162.458786 192.359421,173.547058 190.946075,184.662323   C190.871353,185.250015 190.474304,185.796738 189.841019,187.247360   C186.210510,181.222794 182.976776,175.842239 179.725647,170.472198   C178.955444,169.200012 178.152069,167.946198 177.321075,166.712814   C171.655502,158.303879 165.696976,157.895370 158.391602,165.408417   C158.078323,165.360428 157.652771,165.420700 157.469803,165.238007   C149.875748,157.654785 143.130539,158.596008 137.555145,167.964096   C134.036392,173.876511 130.410126,179.724930 126.832085,185.602066   C126.279259,185.624420 125.726440,185.646790 125.173615,185.669144   C124.425682,181.364471 123.501671,177.081375 122.970955,172.750092   C122.169479,166.209213 121.207092,159.641312 121.107727,153.072891   C120.980789,144.680984 123.299721,136.679184 127.372063,129.329895   C137.008881,111.938492 146.788177,94.625999 156.536728,77.296715   C156.757431,76.904381 157.297928,76.691948 158.697723,75.631889   C166.547668,89.656845 174.301224,103.509598 182.239410,117.681816  z"
   id="path6"
   style="fill:none" />
</svg>
