<?xml version="1.0" encoding="UTF-8" standalone="no"?>
<!-- Created with Inkscape (http://www.inkscape.org/) -->

<svg
   width="512"
   height="512"
   viewBox="0 0 512 512"
   version="1.1"
   id="svg1"
   xmlns="http://www.w3.org/2000/svg"
   xmlns:svg="http://www.w3.org/2000/svg">
  <defs
     id="defs1" />
  <g
     id="layer1">
    <path
       style="display:inline;mix-blend-mode:normal;fill:#2e6f40;fill-opacity:1;stroke-width:0.947046"
       d="M 78.0994,450.99582 C 52.036929,440.09267 56.491048,430.09379 56.11236,427.99606 50.915411,399.20819 227.58781,55.950649 255.99446,56.000003 c 28.40666,0.04928 205.31347,337.650277 199.88211,371.996057 -0.1282,0.81128 3.60924,15.75386 -21.98705,22.99976 -16.65166,4.7138 -37.7302,4.89404 -47.9717,4.99993 -10.24148,0.10582 -42.31289,-1.78784 -51.96934,-2.99995 -48.80116,-6.12571 -38.00532,2.97122 -57.96579,-86.99908 -19.9605,-89.9703 -18.42994,-83.03478 -19.98823,-89.99905 -1.56412,6.9926 7.9e-4,0.009 -19.98821,89.99905 -19.98942,89.99086 -9.29249,83.99523 -57.96581,86.99908 -25.02766,1.54459 -42.78866,3.02271 -51.96933,2.99995 -9.1807,-0.0242 -36.433072,-0.17265 -47.97171,-4.99993 z"
       id="path2" />
  </g>
</svg>
